<mxfile host="Electron" modified="2023-12-19T07:31:48.401Z" agent="Mozilla/5.0 (Macintosh; Intel Mac OS X 10_15_7) AppleWebKit/537.36 (KHTML, like Gecko) draw.io/22.1.2 Chrome/114.0.5735.289 Electron/25.9.4 Safari/537.36" etag="Th0eN7DURgud9ZWYQ-l6" version="22.1.2" type="device">
  <diagram name="第 1 页" id="HRP_PMZppRsLsX6lPDN2">
    <mxGraphModel dx="1865" dy="2362" grid="1" gridSize="10" guides="1" tooltips="1" connect="1" arrows="1" fold="1" page="1" pageScale="1" pageWidth="827" pageHeight="1169" math="0" shadow="0">
      <root>
        <mxCell id="0" />
        <mxCell id="1" parent="0" />
        <mxCell id="QnHVCZFQj1_OgZSwfUvT-1" value="x" style="rounded=0;whiteSpace=wrap;html=1;fontSize=24;" parent="1" vertex="1">
          <mxGeometry x="120" y="80" width="80" height="80" as="geometry" />
        </mxCell>
        <mxCell id="QnHVCZFQj1_OgZSwfUvT-2" value="" style="rounded=0;whiteSpace=wrap;html=1;fontSize=24;" parent="1" vertex="1">
          <mxGeometry x="200" y="80" width="80" height="80" as="geometry" />
        </mxCell>
        <mxCell id="QnHVCZFQj1_OgZSwfUvT-3" value="val" style="rounded=0;whiteSpace=wrap;html=1;fontSize=24;" parent="1" vertex="1">
          <mxGeometry x="440" y="80" width="80" height="80" as="geometry" />
        </mxCell>
        <mxCell id="QnHVCZFQj1_OgZSwfUvT-4" value="1" style="rounded=0;whiteSpace=wrap;html=1;fontSize=24;" parent="1" vertex="1">
          <mxGeometry x="520" y="80" width="80" height="80" as="geometry" />
        </mxCell>
        <mxCell id="QnHVCZFQj1_OgZSwfUvT-5" value="" style="endArrow=none;dashed=1;html=1;rounded=0;strokeWidth=3;" parent="1" edge="1">
          <mxGeometry width="50" height="50" relative="1" as="geometry">
            <mxPoint x="40" y="40" as="sourcePoint" />
            <mxPoint x="680" y="40" as="targetPoint" />
          </mxGeometry>
        </mxCell>
        <mxCell id="QnHVCZFQj1_OgZSwfUvT-6" value="" style="curved=1;endArrow=classic;html=1;rounded=0;strokeWidth=2;" parent="1" source="QnHVCZFQj1_OgZSwfUvT-2" target="QnHVCZFQj1_OgZSwfUvT-3" edge="1">
          <mxGeometry width="50" height="50" relative="1" as="geometry">
            <mxPoint x="300" y="140" as="sourcePoint" />
            <mxPoint x="350" y="90" as="targetPoint" />
            <Array as="points">
              <mxPoint x="350" y="140" />
              <mxPoint x="350" y="80" />
            </Array>
          </mxGeometry>
        </mxCell>
        <mxCell id="QnHVCZFQj1_OgZSwfUvT-7" value="&lt;font style=&quot;font-size: 24px;&quot;&gt;alter(x, x)&lt;/font&gt;" style="text;html=1;strokeColor=none;fillColor=none;align=center;verticalAlign=middle;whiteSpace=wrap;rounded=0;" parent="1" vertex="1">
          <mxGeometry x="40" y="-160" width="120" height="30" as="geometry" />
        </mxCell>
        <mxCell id="QnHVCZFQj1_OgZSwfUvT-8" value="a" style="rounded=0;whiteSpace=wrap;html=1;fontSize=24;" parent="1" vertex="1">
          <mxGeometry x="240" y="-160" width="80" height="80" as="geometry" />
        </mxCell>
        <mxCell id="QnHVCZFQj1_OgZSwfUvT-9" value="" style="rounded=0;whiteSpace=wrap;html=1;fontSize=24;" parent="1" vertex="1">
          <mxGeometry x="320" y="-160" width="80" height="80" as="geometry" />
        </mxCell>
        <mxCell id="QnHVCZFQj1_OgZSwfUvT-10" value="&lt;font style=&quot;font-size: 24px;&quot;&gt;init&lt;/font&gt;" style="text;html=1;strokeColor=none;fillColor=none;align=center;verticalAlign=middle;whiteSpace=wrap;rounded=0;" parent="1" vertex="1">
          <mxGeometry x="40" y="40" width="50" height="30" as="geometry" />
        </mxCell>
        <mxCell id="QnHVCZFQj1_OgZSwfUvT-11" value="b" style="rounded=0;whiteSpace=wrap;html=1;fontSize=24;" parent="1" vertex="1">
          <mxGeometry x="240" y="-60" width="80" height="80" as="geometry" />
        </mxCell>
        <mxCell id="QnHVCZFQj1_OgZSwfUvT-12" value="" style="rounded=0;whiteSpace=wrap;html=1;fontSize=24;" parent="1" vertex="1">
          <mxGeometry x="320" y="-60" width="80" height="80" as="geometry" />
        </mxCell>
        <mxCell id="QnHVCZFQj1_OgZSwfUvT-13" value="" style="curved=1;endArrow=classic;html=1;rounded=0;strokeWidth=2;" parent="1" source="QnHVCZFQj1_OgZSwfUvT-12" target="QnHVCZFQj1_OgZSwfUvT-3" edge="1">
          <mxGeometry width="50" height="50" relative="1" as="geometry">
            <mxPoint x="440" y="10" as="sourcePoint" />
            <mxPoint x="490" y="-40" as="targetPoint" />
            <Array as="points">
              <mxPoint x="480" y="-20" />
            </Array>
          </mxGeometry>
        </mxCell>
        <mxCell id="QnHVCZFQj1_OgZSwfUvT-14" value="" style="curved=1;endArrow=classic;html=1;rounded=0;strokeWidth=2;" parent="1" source="QnHVCZFQj1_OgZSwfUvT-9" target="QnHVCZFQj1_OgZSwfUvT-3" edge="1">
          <mxGeometry width="50" height="50" relative="1" as="geometry">
            <mxPoint x="410" y="-10" as="sourcePoint" />
            <mxPoint x="483" y="88" as="targetPoint" />
            <Array as="points">
              <mxPoint x="560" y="-130" />
            </Array>
          </mxGeometry>
        </mxCell>
        <mxCell id="QnHVCZFQj1_OgZSwfUvT-15" value="x" style="rounded=0;whiteSpace=wrap;html=1;fontSize=24;" parent="1" vertex="1">
          <mxGeometry x="840" y="80" width="80" height="80" as="geometry" />
        </mxCell>
        <mxCell id="QnHVCZFQj1_OgZSwfUvT-16" value="" style="rounded=0;whiteSpace=wrap;html=1;fontSize=24;" parent="1" vertex="1">
          <mxGeometry x="920" y="80" width="80" height="80" as="geometry" />
        </mxCell>
        <mxCell id="QnHVCZFQj1_OgZSwfUvT-17" value="val" style="rounded=0;whiteSpace=wrap;html=1;fontSize=24;" parent="1" vertex="1">
          <mxGeometry x="1160" y="80" width="80" height="80" as="geometry" />
        </mxCell>
        <mxCell id="QnHVCZFQj1_OgZSwfUvT-18" value="&lt;font color=&quot;#ff0000&quot;&gt;10&lt;/font&gt;" style="rounded=0;whiteSpace=wrap;html=1;fontSize=24;strokeColor=#FF0000;" parent="1" vertex="1">
          <mxGeometry x="1240" y="80" width="80" height="80" as="geometry" />
        </mxCell>
        <mxCell id="QnHVCZFQj1_OgZSwfUvT-19" value="" style="endArrow=none;dashed=1;html=1;rounded=0;strokeWidth=3;" parent="1" edge="1">
          <mxGeometry width="50" height="50" relative="1" as="geometry">
            <mxPoint x="760" y="40" as="sourcePoint" />
            <mxPoint x="1400" y="40" as="targetPoint" />
          </mxGeometry>
        </mxCell>
        <mxCell id="QnHVCZFQj1_OgZSwfUvT-20" value="" style="curved=1;endArrow=classic;html=1;rounded=0;strokeWidth=2;" parent="1" source="QnHVCZFQj1_OgZSwfUvT-16" target="QnHVCZFQj1_OgZSwfUvT-17" edge="1">
          <mxGeometry width="50" height="50" relative="1" as="geometry">
            <mxPoint x="1020" y="140" as="sourcePoint" />
            <mxPoint x="1070" y="90" as="targetPoint" />
            <Array as="points">
              <mxPoint x="1070" y="140" />
              <mxPoint x="1070" y="80" />
            </Array>
          </mxGeometry>
        </mxCell>
        <mxCell id="QnHVCZFQj1_OgZSwfUvT-21" value="&lt;font style=&quot;font-size: 24px;&quot;&gt;alter(x, x)&lt;/font&gt;" style="text;html=1;strokeColor=none;fillColor=none;align=center;verticalAlign=middle;whiteSpace=wrap;rounded=0;" parent="1" vertex="1">
          <mxGeometry x="760" y="-160" width="120" height="30" as="geometry" />
        </mxCell>
        <mxCell id="QnHVCZFQj1_OgZSwfUvT-22" value="a" style="rounded=0;whiteSpace=wrap;html=1;fontSize=24;strokeColor=#FF0000;" parent="1" vertex="1">
          <mxGeometry x="960" y="-160" width="80" height="80" as="geometry" />
        </mxCell>
        <mxCell id="QnHVCZFQj1_OgZSwfUvT-23" value="" style="rounded=0;whiteSpace=wrap;html=1;fontSize=24;strokeColor=#FF0000;" parent="1" vertex="1">
          <mxGeometry x="1040" y="-160" width="80" height="80" as="geometry" />
        </mxCell>
        <mxCell id="QnHVCZFQj1_OgZSwfUvT-24" value="&lt;font style=&quot;font-size: 24px;&quot;&gt;init&lt;/font&gt;" style="text;html=1;strokeColor=none;fillColor=none;align=center;verticalAlign=middle;whiteSpace=wrap;rounded=0;" parent="1" vertex="1">
          <mxGeometry x="760" y="40" width="50" height="30" as="geometry" />
        </mxCell>
        <mxCell id="QnHVCZFQj1_OgZSwfUvT-25" value="b" style="rounded=0;whiteSpace=wrap;html=1;fontSize=24;" parent="1" vertex="1">
          <mxGeometry x="960" y="-60" width="80" height="80" as="geometry" />
        </mxCell>
        <mxCell id="QnHVCZFQj1_OgZSwfUvT-26" value="" style="rounded=0;whiteSpace=wrap;html=1;fontSize=24;" parent="1" vertex="1">
          <mxGeometry x="1040" y="-60" width="80" height="80" as="geometry" />
        </mxCell>
        <mxCell id="QnHVCZFQj1_OgZSwfUvT-27" value="" style="curved=1;endArrow=classic;html=1;rounded=0;strokeWidth=2;" parent="1" source="QnHVCZFQj1_OgZSwfUvT-26" target="QnHVCZFQj1_OgZSwfUvT-17" edge="1">
          <mxGeometry width="50" height="50" relative="1" as="geometry">
            <mxPoint x="1160" y="10" as="sourcePoint" />
            <mxPoint x="1210" y="-40" as="targetPoint" />
            <Array as="points">
              <mxPoint x="1200" y="-20" />
            </Array>
          </mxGeometry>
        </mxCell>
        <mxCell id="QnHVCZFQj1_OgZSwfUvT-28" value="" style="curved=1;endArrow=classic;html=1;rounded=0;strokeWidth=2;strokeColor=#FF0000;" parent="1" source="QnHVCZFQj1_OgZSwfUvT-23" target="QnHVCZFQj1_OgZSwfUvT-17" edge="1">
          <mxGeometry width="50" height="50" relative="1" as="geometry">
            <mxPoint x="1130" y="-10" as="sourcePoint" />
            <mxPoint x="1203" y="88" as="targetPoint" />
            <Array as="points">
              <mxPoint x="1280" y="-130" />
            </Array>
          </mxGeometry>
        </mxCell>
        <mxCell id="QnHVCZFQj1_OgZSwfUvT-29" value="x" style="rounded=0;whiteSpace=wrap;html=1;fontSize=24;" parent="1" vertex="1">
          <mxGeometry x="1560" y="80" width="80" height="80" as="geometry" />
        </mxCell>
        <mxCell id="QnHVCZFQj1_OgZSwfUvT-30" value="" style="rounded=0;whiteSpace=wrap;html=1;fontSize=24;" parent="1" vertex="1">
          <mxGeometry x="1640" y="80" width="80" height="80" as="geometry" />
        </mxCell>
        <mxCell id="QnHVCZFQj1_OgZSwfUvT-31" value="val" style="rounded=0;whiteSpace=wrap;html=1;fontSize=24;" parent="1" vertex="1">
          <mxGeometry x="1880" y="80" width="80" height="80" as="geometry" />
        </mxCell>
        <mxCell id="QnHVCZFQj1_OgZSwfUvT-32" value="&lt;font color=&quot;#ff0000&quot;&gt;20&lt;/font&gt;" style="rounded=0;whiteSpace=wrap;html=1;fontSize=24;strokeColor=#FF0000;" parent="1" vertex="1">
          <mxGeometry x="1960" y="80" width="80" height="80" as="geometry" />
        </mxCell>
        <mxCell id="QnHVCZFQj1_OgZSwfUvT-33" value="" style="endArrow=none;dashed=1;html=1;rounded=0;strokeWidth=3;" parent="1" edge="1">
          <mxGeometry width="50" height="50" relative="1" as="geometry">
            <mxPoint x="1480" y="40" as="sourcePoint" />
            <mxPoint x="2120" y="40" as="targetPoint" />
          </mxGeometry>
        </mxCell>
        <mxCell id="QnHVCZFQj1_OgZSwfUvT-34" value="" style="curved=1;endArrow=classic;html=1;rounded=0;strokeWidth=2;" parent="1" source="QnHVCZFQj1_OgZSwfUvT-30" target="QnHVCZFQj1_OgZSwfUvT-31" edge="1">
          <mxGeometry width="50" height="50" relative="1" as="geometry">
            <mxPoint x="1740" y="140" as="sourcePoint" />
            <mxPoint x="1790" y="90" as="targetPoint" />
            <Array as="points">
              <mxPoint x="1790" y="140" />
              <mxPoint x="1790" y="80" />
            </Array>
          </mxGeometry>
        </mxCell>
        <mxCell id="QnHVCZFQj1_OgZSwfUvT-35" value="&lt;font style=&quot;font-size: 24px;&quot;&gt;alter(x, x)&lt;/font&gt;" style="text;html=1;strokeColor=none;fillColor=none;align=center;verticalAlign=middle;whiteSpace=wrap;rounded=0;" parent="1" vertex="1">
          <mxGeometry x="1480" y="-160" width="120" height="30" as="geometry" />
        </mxCell>
        <mxCell id="QnHVCZFQj1_OgZSwfUvT-36" value="a" style="rounded=0;whiteSpace=wrap;html=1;fontSize=24;" parent="1" vertex="1">
          <mxGeometry x="1680" y="-160" width="80" height="80" as="geometry" />
        </mxCell>
        <mxCell id="QnHVCZFQj1_OgZSwfUvT-37" value="" style="rounded=0;whiteSpace=wrap;html=1;fontSize=24;" parent="1" vertex="1">
          <mxGeometry x="1760" y="-160" width="80" height="80" as="geometry" />
        </mxCell>
        <mxCell id="QnHVCZFQj1_OgZSwfUvT-38" value="&lt;font style=&quot;font-size: 24px;&quot;&gt;init&lt;/font&gt;" style="text;html=1;strokeColor=none;fillColor=none;align=center;verticalAlign=middle;whiteSpace=wrap;rounded=0;" parent="1" vertex="1">
          <mxGeometry x="1480" y="40" width="50" height="30" as="geometry" />
        </mxCell>
        <mxCell id="QnHVCZFQj1_OgZSwfUvT-39" value="b" style="rounded=0;whiteSpace=wrap;html=1;fontSize=24;strokeColor=#FF0000;" parent="1" vertex="1">
          <mxGeometry x="1680" y="-60" width="80" height="80" as="geometry" />
        </mxCell>
        <mxCell id="QnHVCZFQj1_OgZSwfUvT-40" value="" style="rounded=0;whiteSpace=wrap;html=1;fontSize=24;strokeColor=#FF0000;" parent="1" vertex="1">
          <mxGeometry x="1760" y="-60" width="80" height="80" as="geometry" />
        </mxCell>
        <mxCell id="QnHVCZFQj1_OgZSwfUvT-41" value="" style="curved=1;endArrow=classic;html=1;rounded=0;strokeWidth=2;strokeColor=#FF0000;" parent="1" source="QnHVCZFQj1_OgZSwfUvT-40" target="QnHVCZFQj1_OgZSwfUvT-31" edge="1">
          <mxGeometry width="50" height="50" relative="1" as="geometry">
            <mxPoint x="1880" y="10" as="sourcePoint" />
            <mxPoint x="1930" y="-40" as="targetPoint" />
            <Array as="points">
              <mxPoint x="1920" y="-20" />
            </Array>
          </mxGeometry>
        </mxCell>
        <mxCell id="QnHVCZFQj1_OgZSwfUvT-42" value="" style="curved=1;endArrow=classic;html=1;rounded=0;strokeWidth=2;" parent="1" source="QnHVCZFQj1_OgZSwfUvT-37" target="QnHVCZFQj1_OgZSwfUvT-31" edge="1">
          <mxGeometry width="50" height="50" relative="1" as="geometry">
            <mxPoint x="1850" y="-10" as="sourcePoint" />
            <mxPoint x="1923" y="88" as="targetPoint" />
            <Array as="points">
              <mxPoint x="2000" y="-130" />
            </Array>
          </mxGeometry>
        </mxCell>
        <mxCell id="QnHVCZFQj1_OgZSwfUvT-45" value="&lt;font style=&quot;font-size: 24px;&quot;&gt;a.val = 10&lt;/font&gt;" style="text;html=1;strokeColor=none;fillColor=none;align=center;verticalAlign=middle;whiteSpace=wrap;rounded=0;" parent="1" vertex="1">
          <mxGeometry x="660" y="-40" width="130" height="30" as="geometry" />
        </mxCell>
        <mxCell id="QnHVCZFQj1_OgZSwfUvT-46" value="&lt;font style=&quot;font-size: 24px;&quot;&gt;b.val = 20&lt;/font&gt;" style="text;html=1;strokeColor=none;fillColor=none;align=center;verticalAlign=middle;whiteSpace=wrap;rounded=0;" parent="1" vertex="1">
          <mxGeometry x="1380" y="-40" width="130" height="30" as="geometry" />
        </mxCell>
      </root>
    </mxGraphModel>
  </diagram>
</mxfile>
